<svg xmlns="http://www.w3.org/2000/svg" version="1.1" xmlns:xlink="http://www.w3.org/1999/xlink" xmlns:svgjs="http://svgjs.dev/svgjs" viewBox="0 0 14.453274034945144 2.630661275904104"><g transform="matrix(0.6488534748501551,0,0,0.6488534748501551,2.999482260144724,1.081743387005996)"><rect width="15.876935310849248" height="15.876935310849248" x="-1.423661275904104" y="-7.578467655424624" fill="#3361e1"></rect><g transform="matrix(1,0,0,1,0,0)" clip-path="url(#SvgjsClipPath19043)"><g clip-path="url(#SvgjsClipPath1903829c24f10-4dd6-402e-b31e-181023aa1a14)"><path d=" M 6.050162015991129 0.4660191656508193 L 6.276259943662806 0.8573990925098198 L 6.428790215909862 0.593045984017337 L 6.294079664643439 0.3599182581606392 L 6.490260079109103 0.02085310849248273 L 6.882620908040433 0.02085310849248273 L 7.077329969397604 0.3599182581606392 L 6.942782901809903 0.593045984017337 L 7.095313174056958 0.8572356088310984 L 7.321411101728635 0.4660191656508193 C 7.360453105199614 0.4005553144584429 7.360453105199614 0.3189542345053929 7.321411101728635 0.2534903833130163 L 7.095313174056956 -0.13756257618854123 C 7.058144352044226 -0.2038212652480511 6.987685281230331 -0.24441522679443434 6.911721002852837 -0.2433365163212786 L 6.459688631188202 -0.2433365163212786 C 6.383782616757287 -0.2443549328976788 6.313400676791345 -0.20376926876402063 6.276259943662806 -0.13756257618854117 L 6.050162015991129 0.2538173506704592 C 6.011249877125021 0.3191997046413037 6.011249877125021 0.40063681167997495 6.050162015991129 0.4660191656508194 Z" fill="#dddee0" transform="matrix(1,0,0,1,0,0)" fill-rule="evenodd"></path></g><g clip-path="url(#SvgjsClipPath1903829c24f10-4dd6-402e-b31e-181023aa1a14)"><path d=" M 6.68578655885988 0.4670000677231478 L 6.972373447658471 0.9634999999999998 L 6.685623075181159 0.8822486116754706 L 6.399036186382568 0.9634999999999998 L 6.68578655885988 0.4670000677231478 Z" fill="#51a8db" transform="matrix(1,0,0,1,0,0)" fill-rule="evenodd"></path></g></g><g><path d=" M 0.099 0.7099999999999999 Q 0.088 0.7099999999999999 0.081 0.7029999999999998 Q 0.074 0.6959999999999998 0.074 0.6849999999999998 L 0.074 0.03499999999999981 Q 0.074 0.0239999999999998 0.081 0.016999999999999793 Q 0.088 0.009999999999999787 0.099 0.009999999999999787 L 0.212 0.009999999999999787 Q 0.223 0.009999999999999787 0.23 0.016999999999999793 Q 0.23700000000000002 0.0239999999999998 0.23700000000000002 0.03499999999999981 L 0.23700000000000002 0.6849999999999998 Q 0.23700000000000002 0.6959999999999998 0.23 0.7029999999999998 Q 0.223 0.7099999999999999 0.212 0.7099999999999999 L 0.099 0.7099999999999999 M 0.40997412109375 0.7099999999999999 Q 0.39897412109374997 0.7099999999999999 0.39197412109375 0.7029999999999998 Q 0.38497412109375 0.6959999999999998 0.38497412109375 0.6849999999999998 L 0.38497412109375 0.03499999999999981 Q 0.38497412109375 0.0239999999999998 0.39197412109375 0.016999999999999793 Q 0.39897412109374997 0.009999999999999787 0.40997412109375 0.009999999999999787 L 0.50097412109375 0.009999999999999787 Q 0.5159741210937501 0.009999999999999787 0.52297412109375 0.016999999999999793 Q 0.52997412109375 0.0239999999999998 0.53197412109375 0.027999999999999803 L 0.79897412109375 0.44499999999999984 L 0.79897412109375 0.03499999999999981 Q 0.79897412109375 0.0239999999999998 0.80597412109375 0.016999999999999793 Q 0.81297412109375 0.009999999999999787 0.82297412109375 0.009999999999999787 L 0.92497412109375 0.009999999999999787 Q 0.93597412109375 0.009999999999999787 0.94297412109375 0.016999999999999793 Q 0.94997412109375 0.0239999999999998 0.94997412109375 0.03499999999999981 L 0.94997412109375 0.6849999999999998 Q 0.94997412109375 0.6949999999999998 0.94297412109375 0.7024999999999999 Q 0.93597412109375 0.7099999999999999 0.92497412109375 0.7099999999999999 L 0.83297412109375 0.7099999999999999 Q 0.81797412109375 0.7099999999999999 0.8114741210937501 0.7024999999999999 Q 0.80497412109375 0.6949999999999998 0.80197412109375 0.6919999999999998 L 0.53597412109375 0.28799999999999987 L 0.53597412109375 0.6849999999999998 Q 0.53597412109375 0.6959999999999998 0.52897412109375 0.7029999999999998 Q 0.52197412109375 0.7099999999999999 0.51097412109375 0.7099999999999999 L 0.40997412109375 0.7099999999999999 M 1.12298681640625 0.7099999999999999 Q 1.11198681640625 0.7099999999999999 1.10498681640625 0.7029999999999998 Q 1.09798681640625 0.6959999999999998 1.09798681640625 0.6849999999999998 L 1.09798681640625 0.03499999999999981 Q 1.09798681640625 0.0239999999999998 1.10498681640625 0.016999999999999793 Q 1.11198681640625 0.009999999999999787 1.12298681640625 0.009999999999999787 L 1.21398681640625 0.009999999999999787 Q 1.22898681640625 0.009999999999999787 1.23598681640625 0.016999999999999793 Q 1.24298681640625 0.0239999999999998 1.24498681640625 0.027999999999999803 L 1.51198681640625 0.44499999999999984 L 1.51198681640625 0.03499999999999981 Q 1.51198681640625 0.0239999999999998 1.51898681640625 0.016999999999999793 Q 1.52598681640625 0.009999999999999787 1.53598681640625 0.009999999999999787 L 1.6379868164062499 0.009999999999999787 Q 1.64898681640625 0.009999999999999787 1.6559868164062501 0.016999999999999793 Q 1.66298681640625 0.0239999999999998 1.66298681640625 0.03499999999999981 L 1.66298681640625 0.6849999999999998 Q 1.66298681640625 0.6949999999999998 1.6559868164062501 0.7024999999999999 Q 1.64898681640625 0.7099999999999999 1.6379868164062499 0.7099999999999999 L 1.54598681640625 0.7099999999999999 Q 1.5309868164062501 0.7099999999999999 1.5244868164062502 0.7024999999999999 Q 1.51798681640625 0.6949999999999998 1.51498681640625 0.6919999999999998 L 1.24898681640625 0.28799999999999987 L 1.24898681640625 0.6849999999999998 Q 1.24898681640625 0.6959999999999998 1.24198681640625 0.7029999999999998 Q 1.23498681640625 0.7099999999999999 1.22398681640625 0.7099999999999999 L 1.12298681640625 0.7099999999999999 M 2.08899951171875 0.7199999999999999 Q 1.9979995117187501 0.7199999999999999 1.93199951171875 0.6899999999999998 Q 1.86599951171875 0.6599999999999998 1.82899951171875 0.5994999999999998 Q 1.79199951171875 0.5389999999999998 1.78899951171875 0.44699999999999984 Q 1.78799951171875 0.40399999999999986 1.78799951171875 0.3614999999999998 Q 1.78799951171875 0.31899999999999984 1.78899951171875 0.27499999999999986 Q 1.79199951171875 0.18499999999999983 1.82949951171875 0.12349999999999983 Q 1.86699951171875 0.06199999999999983 1.93349951171875 0.030999999999999805 Q 1.99999951171875 -1.1102230246251565e-16 2.08899951171875 -1.1102230246251565e-16 Q 2.17699951171875 -1.1102230246251565e-16 2.24349951171875 0.030999999999999805 Q 2.30999951171875 0.06199999999999983 2.3479995117187498 0.12349999999999983 Q 2.38599951171875 0.18499999999999983 2.38799951171875 0.27499999999999986 Q 2.38999951171875 0.31899999999999984 2.38999951171875 0.3614999999999998 Q 2.38999951171875 0.40399999999999986 2.38799951171875 0.44699999999999984 Q 2.38499951171875 0.5389999999999998 2.3479995117187498 0.5994999999999998 Q 2.31099951171875 0.6599999999999998 2.24499951171875 0.6899999999999998 Q 2.17899951171875 0.7199999999999999 2.08899951171875 0.7199999999999999 M 2.08899951171875 0.5909999999999999 Q 2.14699951171875 0.5909999999999999 2.18449951171875 0.5554999999999999 Q 2.22199951171875 0.5199999999999998 2.22399951171875 0.44199999999999984 Q 2.22599951171875 0.39799999999999985 2.22599951171875 0.3594999999999998 Q 2.22599951171875 0.32099999999999984 2.22399951171875 0.27799999999999986 Q 2.2229995117187498 0.22599999999999987 2.20499951171875 0.19299999999999984 Q 2.18699951171875 0.1599999999999998 2.15749951171875 0.14449999999999985 Q 2.12799951171875 0.1289999999999999 2.08899951171875 0.1289999999999999 Q 2.04999951171875 0.1289999999999999 2.01999951171875 0.14449999999999985 Q 1.9899995117187501 0.1599999999999998 1.97249951171875 0.19299999999999984 Q 1.95499951171875 0.22599999999999987 1.95299951171875 0.27799999999999986 Q 1.95199951171875 0.32099999999999984 1.95199951171875 0.3594999999999998 Q 1.95199951171875 0.39799999999999985 1.95299951171875 0.44199999999999984 Q 1.95599951171875 0.5199999999999998 1.99299951171875 0.5554999999999999 Q 2.02999951171875 0.5909999999999999 2.08899951171875 0.5909999999999999 M 2.69500634765625 0.7099999999999999 Q 2.67900634765625 0.7099999999999999 2.66950634765625 0.7014999999999999 Q 2.66000634765625 0.6929999999999998 2.65600634765625 0.6809999999999998 L 2.44600634765625 0.039999999999999813 Q 2.44500634765625 0.03499999999999981 2.44500634765625 0.030999999999999805 Q 2.44500634765625 0.0229999999999998 2.45100634765625 0.016499999999999848 Q 2.45700634765625 0.009999999999999787 2.46600634765625 0.009999999999999787 L 2.57100634765625 0.009999999999999787 Q 2.58600634765625 0.009999999999999787 2.59450634765625 0.01849999999999985 Q 2.60300634765625 0.026999999999999802 2.60500634765625 0.03399999999999981 L 2.76100634765625 0.5229999999999999 L 2.91600634765625 0.03399999999999981 Q 2.91900634765625 0.026999999999999802 2.92700634765625 0.01849999999999985 Q 2.93500634765625 0.009999999999999787 2.95000634765625 0.009999999999999787 L 3.05500634765625 0.009999999999999787 Q 3.06400634765625 0.009999999999999787 3.07000634765625 0.016499999999999848 Q 3.07600634765625 0.0229999999999998 3.07600634765625 0.030999999999999805 Q 3.07600634765625 0.03499999999999981 3.07500634765625 0.039999999999999813 L 2.86500634765625 0.6809999999999998 Q 2.86200634765625 0.6929999999999998 2.85250634765625 0.7014999999999999 Q 2.84300634765625 0.7099999999999999 2.82600634765625 0.7099999999999999 L 2.69500634765625 0.7099999999999999 M 3.0809736328125 0.7099999999999999 Q 3.0719736328125 0.7099999999999999 3.0659736328125 0.7034999999999999 Q 3.0599736328125 0.6969999999999998 3.0599736328125 0.6889999999999998 Q 3.0599736328125 0.6839999999999998 3.0609736328125 0.6799999999999998 L 3.2989736328125 0.03699999999999981 Q 3.3019736328125 0.0259999999999998 3.3109736328125 0.017999999999999794 Q 3.3199736328125002 0.009999999999999787 3.3359736328125003 0.009999999999999787 L 3.4639736328125 0.009999999999999787 Q 3.4799736328125 0.009999999999999787 3.4889736328125 0.017999999999999794 Q 3.4979736328125 0.0259999999999998 3.5009736328125 0.03699999999999981 L 3.7389736328125 0.6799999999999998 Q 3.7399736328125 0.6839999999999998 3.7399736328125 0.6889999999999998 Q 3.7399736328125 0.6969999999999998 3.7339736328125 0.7034999999999999 Q 3.7279736328125 0.7099999999999999 3.7189736328125003 0.7099999999999999 L 3.6149736328125 0.7099999999999999 Q 3.5999736328125 0.7099999999999999 3.5929736328125 0.7029999999999998 Q 3.5859736328125003 0.6959999999999998 3.5839736328125 0.6899999999999998 L 3.5409736328125 0.5779999999999998 L 3.2589736328125 0.5779999999999998 L 3.2159736328125 0.6899999999999998 Q 3.2139736328125 0.6959999999999998 3.2069736328125 0.7029999999999998 Q 3.1999736328125 0.7099999999999999 3.1849736328125 0.7099999999999999 L 3.0809736328125 0.7099999999999999 M 3.2959736328125 0.44899999999999984 L 3.5029736328125 0.44899999999999984 L 3.3999736328125 0.1609999999999998 L 3.2959736328125 0.44899999999999984 M 3.932931640625 0.7099999999999999 Q 3.921931640625 0.7099999999999999 3.914931640625 0.7029999999999998 Q 3.907931640625 0.6959999999999998 3.907931640625 0.6849999999999998 L 3.907931640625 0.1489999999999998 L 3.725931640625 0.1489999999999998 Q 3.715931640625 0.1489999999999998 3.708931640625 0.1419999999999998 Q 3.701931640625 0.1349999999999998 3.701931640625 0.12499999999999989 L 3.701931640625 0.03499999999999981 Q 3.701931640625 0.0239999999999998 3.708931640625 0.016999999999999793 Q 3.715931640625 0.009999999999999787 3.725931640625 0.009999999999999787 L 4.249931640625 0.009999999999999787 Q 4.2609316406249995 0.009999999999999787 4.267931640625 0.016999999999999793 Q 4.274931640625 0.0239999999999998 4.274931640625 0.03499999999999981 L 4.274931640625 0.12499999999999989 Q 4.274931640625 0.1349999999999998 4.267931640625 0.1419999999999998 Q 4.2609316406249995 0.1489999999999998 4.249931640625 0.1489999999999998 L 4.068931640625 0.1489999999999998 L 4.068931640625 0.6849999999999998 Q 4.068931640625 0.6959999999999998 4.061931640625 0.7029999999999998 Q 4.054931640625 0.7099999999999999 4.043931640625 0.7099999999999999 L 3.932931640625 0.7099999999999999 M 4.39593603515625 0.7099999999999999 Q 4.38493603515625 0.7099999999999999 4.37793603515625 0.7029999999999998 Q 4.37093603515625 0.6959999999999998 4.37093603515625 0.6849999999999998 L 4.37093603515625 0.03499999999999981 Q 4.37093603515625 0.0239999999999998 4.37793603515625 0.016999999999999793 Q 4.38493603515625 0.009999999999999787 4.39593603515625 0.009999999999999787 L 4.50893603515625 0.009999999999999787 Q 4.51993603515625 0.009999999999999787 4.52693603515625 0.016999999999999793 Q 4.53393603515625 0.0239999999999998 4.53393603515625 0.03499999999999981 L 4.53393603515625 0.6849999999999998 Q 4.53393603515625 0.6959999999999998 4.52693603515625 0.7029999999999998 Q 4.51993603515625 0.7099999999999999 4.50893603515625 0.7099999999999999 L 4.39593603515625 0.7099999999999999 M 4.88391015625 0.7099999999999999 Q 4.86791015625 0.7099999999999999 4.85841015625 0.7014999999999999 Q 4.84891015625 0.6929999999999998 4.84491015625 0.6809999999999998 L 4.63491015625 0.039999999999999813 Q 4.63391015625 0.03499999999999981 4.63391015625 0.030999999999999805 Q 4.63391015625 0.0229999999999998 4.63991015625 0.016499999999999848 Q 4.64591015625 0.009999999999999787 4.65491015625 0.009999999999999787 L 4.75991015625 0.009999999999999787 Q 4.77491015625 0.009999999999999787 4.78341015625 0.01849999999999985 Q 4.79191015625 0.026999999999999802 4.79391015625 0.03399999999999981 L 4.94991015625 0.5229999999999999 L 5.10491015625 0.03399999999999981 Q 5.10791015625 0.026999999999999802 5.11591015625 0.01849999999999985 Q 5.12391015625 0.009999999999999787 5.13891015625 0.009999999999999787 L 5.24391015625 0.009999999999999787 Q 5.25291015625 0.009999999999999787 5.25891015625 0.016499999999999848 Q 5.26491015625 0.0229999999999998 5.26491015625 0.030999999999999805 Q 5.26491015625 0.03499999999999981 5.26391015625 0.039999999999999813 L 5.05391015625 0.6809999999999998 Q 5.05091015625 0.6929999999999998 5.04141015625 0.7014999999999999 Q 5.03191015625 0.7099999999999999 5.01491015625 0.7099999999999999 L 4.88391015625 0.7099999999999999 M 5.3898935546875 0.7099999999999999 Q 5.3788935546875 0.7099999999999999 5.3718935546875 0.7029999999999998 Q 5.3648935546875 0.6959999999999998 5.3648935546875 0.6849999999999998 L 5.3648935546875 0.03499999999999981 Q 5.3648935546875 0.0239999999999998 5.3718935546875 0.016999999999999793 Q 5.3788935546875 0.009999999999999787 5.3898935546875 0.009999999999999787 L 5.8428935546875 0.009999999999999787 Q 5.8538935546875 0.009999999999999787 5.8608935546875 0.016999999999999793 Q 5.8678935546875 0.0239999999999998 5.8678935546875 0.03499999999999981 L 5.8678935546875 0.11499999999999988 Q 5.8678935546875 0.12499999999999989 5.8608935546875 0.1319999999999999 Q 5.8538935546875 0.1389999999999998 5.8428935546875 0.1389999999999998 L 5.5188935546875 0.1389999999999998 L 5.5188935546875 0.2959999999999998 L 5.8208935546875 0.2959999999999998 Q 5.8318935546875 0.2959999999999998 5.8388935546875 0.3029999999999998 Q 5.8458935546875 0.30999999999999983 5.8458935546875 0.32099999999999984 L 5.8458935546875 0.39499999999999985 Q 5.8458935546875 0.40499999999999986 5.8388935546875 0.41199999999999987 Q 5.8318935546875 0.4189999999999999 5.8208935546875 0.4189999999999999 L 5.5188935546875 0.4189999999999999 L 5.5188935546875 0.5809999999999998 L 5.8508935546875005 0.5809999999999998 Q 5.8618935546875 0.5809999999999998 5.8688935546875 0.5879999999999999 Q 5.8758935546875 0.5949999999999999 5.8758935546875 0.6059999999999999 L 5.8758935546875 0.6849999999999998 Q 5.8758935546875 0.6959999999999998 5.8688935546875 0.7029999999999998 Q 5.8618935546875 0.7099999999999999 5.8508935546875005 0.7099999999999999 L 5.3898935546875 0.7099999999999999" fill="#ffffff" fill-rule="nonzero"></path></g><g><path d=" M 7.703511196541039 0.7099999999999999 Q 7.692511196541039 0.7099999999999999 7.685511196541039 0.7029999999999998 Q 7.678511196541039 0.6959999999999998 7.678511196541039 0.6849999999999998 L 7.678511196541039 0.1489999999999998 L 7.496511196541039 0.1489999999999998 Q 7.486511196541039 0.1489999999999998 7.479511196541039 0.1419999999999998 Q 7.472511196541039 0.1349999999999998 7.472511196541039 0.12499999999999989 L 7.472511196541039 0.03499999999999981 Q 7.472511196541039 0.0239999999999998 7.479511196541039 0.016999999999999793 Q 7.486511196541039 0.009999999999999787 7.496511196541039 0.009999999999999787 L 8.020511196541039 0.009999999999999787 Q 8.03151119654104 0.009999999999999787 8.03851119654104 0.016999999999999793 Q 8.045511196541039 0.0239999999999998 8.045511196541039 0.03499999999999981 L 8.045511196541039 0.12499999999999989 Q 8.045511196541039 0.1349999999999998 8.03851119654104 0.1419999999999998 Q 8.03151119654104 0.1489999999999998 8.020511196541039 0.1489999999999998 L 7.839511196541039 0.1489999999999998 L 7.839511196541039 0.6849999999999998 Q 7.839511196541039 0.6959999999999998 7.832511196541039 0.7029999999999998 Q 7.825511196541039 0.7099999999999999 7.814511196541039 0.7099999999999999 L 7.703511196541039 0.7099999999999999 M 8.16651559107229 0.7099999999999999 Q 8.15551559107229 0.7099999999999999 8.14851559107229 0.7029999999999998 Q 8.14151559107229 0.6959999999999998 8.14151559107229 0.6849999999999998 L 8.14151559107229 0.03499999999999981 Q 8.14151559107229 0.0239999999999998 8.14851559107229 0.016999999999999793 Q 8.15551559107229 0.009999999999999787 8.16651559107229 0.009999999999999787 L 8.61951559107229 0.009999999999999787 Q 8.63051559107229 0.009999999999999787 8.63751559107229 0.016999999999999793 Q 8.64451559107229 0.0239999999999998 8.64451559107229 0.03499999999999981 L 8.64451559107229 0.11499999999999988 Q 8.64451559107229 0.12499999999999989 8.63751559107229 0.1319999999999999 Q 8.63051559107229 0.1389999999999998 8.61951559107229 0.1389999999999998 L 8.29551559107229 0.1389999999999998 L 8.29551559107229 0.2959999999999998 L 8.59751559107229 0.2959999999999998 Q 8.60851559107229 0.2959999999999998 8.61551559107229 0.3029999999999998 Q 8.62251559107229 0.30999999999999983 8.62251559107229 0.32099999999999984 L 8.62251559107229 0.39499999999999985 Q 8.62251559107229 0.40499999999999986 8.61551559107229 0.41199999999999987 Q 8.60851559107229 0.4189999999999999 8.59751559107229 0.4189999999999999 L 8.29551559107229 0.4189999999999999 L 8.29551559107229 0.5809999999999998 L 8.62751559107229 0.5809999999999998 Q 8.63851559107229 0.5809999999999998 8.64551559107229 0.5879999999999999 Q 8.65251559107229 0.5949999999999999 8.65251559107229 0.6059999999999999 L 8.65251559107229 0.6849999999999998 Q 8.65251559107229 0.6959999999999998 8.64551559107229 0.7029999999999998 Q 8.63851559107229 0.7099999999999999 8.62751559107229 0.7099999999999999 L 8.16651559107229 0.7099999999999999 M 9.04353902857229 0.7199999999999999 Q 8.94953902857229 0.7199999999999999 8.88403902857229 0.6884999999999999 Q 8.81853902857229 0.6569999999999998 8.78253902857229 0.5964999999999998 Q 8.74653902857229 0.5359999999999998 8.74253902857229 0.44899999999999984 Q 8.74153902857229 0.40799999999999986 8.74153902857229 0.3609999999999998 Q 8.74153902857229 0.31399999999999983 8.74253902857229 0.27099999999999985 Q 8.74653902857229 0.18499999999999983 8.78303902857229 0.12449999999999983 Q 8.81953902857229 0.06399999999999983 8.88553902857229 0.031999999999999806 Q 8.95153902857229 -1.1102230246251565e-16 9.04353902857229 -1.1102230246251565e-16 Q 9.11053902857229 -1.1102230246251565e-16 9.16553902857229 0.016999999999999793 Q 9.22053902857229 0.03399999999999981 9.26053902857229 0.06599999999999984 Q 9.30053902857229 0.09799999999999986 9.32253902857229 0.1409999999999998 Q 9.34453902857229 0.18399999999999983 9.34653902857229 0.23699999999999982 Q 9.34653902857229 0.24599999999999983 9.34003902857229 0.25199999999999984 Q 9.33353902857229 0.25799999999999984 9.32453902857229 0.25799999999999984 L 9.21053902857229 0.25799999999999984 Q 9.19853902857229 0.25799999999999984 9.19153902857229 0.25199999999999984 Q 9.18453902857229 0.24599999999999983 9.18053902857229 0.23199999999999982 Q 9.16553902857229 0.17299999999999982 9.13053902857229 0.1509999999999998 Q 9.09553902857229 0.1289999999999999 9.04353902857229 0.1289999999999999 Q 8.98153902857229 0.1289999999999999 8.94553902857229 0.1629999999999998 Q 8.90953902857229 0.19699999999999984 8.90653902857229 0.27599999999999986 Q 8.90353902857229 0.3579999999999999 8.90653902857229 0.44399999999999984 Q 8.90953902857229 0.5229999999999999 8.94553902857229 0.5569999999999998 Q 8.98153902857229 0.5909999999999999 9.04353902857229 0.5909999999999999 Q 9.09553902857229 0.5909999999999999 9.13103902857229 0.5684999999999998 Q 9.16653902857229 0.5459999999999998 9.18053902857229 0.4879999999999999 Q 9.18453902857229 0.47299999999999986 9.19153902857229 0.46749999999999986 Q 9.19853902857229 0.46199999999999986 9.21053902857229 0.46199999999999986 L 9.32453902857229 0.46199999999999986 Q 9.33353902857229 0.46199999999999986 9.34003902857229 0.46799999999999986 Q 9.34653902857229 0.47399999999999987 9.34653902857229 0.4829999999999999 Q 9.34453902857229 0.5359999999999998 9.32253902857229 0.5789999999999998 Q 9.30053902857229 0.6219999999999999 9.26053902857229 0.6539999999999998 Q 9.22053902857229 0.6859999999999998 9.16553902857229 0.7029999999999998 Q 9.11053902857229 0.7199999999999999 9.04353902857229 0.7199999999999999 M 9.48353219263479 0.7099999999999999 Q 9.47253219263479 0.7099999999999999 9.46553219263479 0.7029999999999998 Q 9.45853219263479 0.6959999999999998 9.45853219263479 0.6849999999999998 L 9.45853219263479 0.03499999999999981 Q 9.45853219263479 0.0239999999999998 9.46553219263479 0.016999999999999793 Q 9.47253219263479 0.009999999999999787 9.48353219263479 0.009999999999999787 L 9.59253219263479 0.009999999999999787 Q 9.60353219263479 0.009999999999999787 9.61053219263479 0.016999999999999793 Q 9.61753219263479 0.0239999999999998 9.61753219263479 0.03499999999999981 L 9.61753219263479 0.28499999999999986 L 9.88853219263479 0.28499999999999986 L 9.88853219263479 0.03499999999999981 Q 9.88853219263479 0.0239999999999998 9.89553219263479 0.016999999999999793 Q 9.90253219263479 0.009999999999999787 9.91353219263479 0.009999999999999787 L 10.02253219263479 0.009999999999999787 Q 10.033532192634791 0.009999999999999787 10.04053219263479 0.016999999999999793 Q 10.04753219263479 0.0239999999999998 10.04753219263479 0.03499999999999981 L 10.04753219263479 0.6849999999999998 Q 10.04753219263479 0.6959999999999998 10.04053219263479 0.7029999999999998 Q 10.033532192634791 0.7099999999999999 10.02253219263479 0.7099999999999999 L 9.91353219263479 0.7099999999999999 Q 9.90253219263479 0.7099999999999999 9.89553219263479 0.7029999999999998 Q 9.88853219263479 0.6959999999999998 9.88853219263479 0.6849999999999998 L 9.88853219263479 0.4269999999999998 L 9.61753219263479 0.4269999999999998 L 9.61753219263479 0.6849999999999998 Q 9.61753219263479 0.6959999999999998 9.61053219263479 0.7029999999999998 Q 9.60353219263479 0.7099999999999999 9.59253219263479 0.7099999999999999 L 9.48353219263479 0.7099999999999999 M 10.44154000513479 0.7099999999999999 Q 10.43054000513479 0.7099999999999999 10.42354000513479 0.7029999999999998 Q 10.41654000513479 0.6959999999999998 10.41654000513479 0.6849999999999998 L 10.41654000513479 0.03499999999999981 Q 10.41654000513479 0.0239999999999998 10.42354000513479 0.016999999999999793 Q 10.43054000513479 0.009999999999999787 10.44154000513479 0.009999999999999787 L 10.73854000513479 0.009999999999999787 Q 10.82154000513479 0.009999999999999787 10.87454000513479 0.03399999999999981 Q 10.92754000513479 0.05799999999999983 10.95304000513479 0.10199999999999987 Q 10.97854000513479 0.1459999999999998 10.97854000513479 0.20499999999999985 Q 10.97854000513479 0.24199999999999983 10.96504000513479 0.26999999999999985 Q 10.95154000513479 0.2979999999999998 10.93204000513479 0.31599999999999984 Q 10.91254000513479 0.33399999999999985 10.89454000513479 0.34299999999999986 Q 10.93354000513479 0.3609999999999998 10.96304000513479 0.40249999999999986 Q 10.99254000513479 0.44399999999999984 10.99254000513479 0.5009999999999999 Q 10.99254000513479 0.5639999999999998 10.96454000513479 0.6109999999999999 Q 10.93654000513479 0.6579999999999998 10.88154000513479 0.6839999999999998 Q 10.82654000513479 0.7099999999999999 10.74754000513479 0.7099999999999999 L 10.44154000513479 0.7099999999999999 M 10.57554000513479 0.5929999999999999 L 10.72854000513479 0.5929999999999999 Q 10.77754000513479 0.5929999999999999 10.80254000513479 0.5654999999999999 Q 10.82754000513479 0.5379999999999998 10.82754000513479 0.4999999999999999 Q 10.82754000513479 0.46099999999999985 10.80204000513479 0.43449999999999983 Q 10.77654000513479 0.40799999999999986 10.72854000513479 0.40799999999999986 L 10.57554000513479 0.40799999999999986 L 10.57554000513479 0.5929999999999999 M 10.57554000513479 0.29299999999999987 L 10.71954000513479 0.29299999999999987 Q 10.76654000513479 0.29299999999999987 10.79004000513479 0.26949999999999985 Q 10.81354000513479 0.24599999999999983 10.81354000513479 0.20899999999999985 Q 10.81354000513479 0.17199999999999982 10.79004000513479 0.14949999999999986 Q 10.76654000513479 0.1269999999999999 10.71954000513479 0.1269999999999999 L 10.57554000513479 0.1269999999999999 L 10.57554000513479 0.29299999999999987 M 11.13654732935354 0.7099999999999999 Q 11.12554732935354 0.7099999999999999 11.11854732935354 0.7029999999999998 Q 11.11154732935354 0.6959999999999998 11.11154732935354 0.6849999999999998 L 11.11154732935354 0.03499999999999981 Q 11.11154732935354 0.0239999999999998 11.11854732935354 0.016999999999999793 Q 11.12554732935354 0.009999999999999787 11.13654732935354 0.009999999999999787 L 11.24754732935354 0.009999999999999787 Q 11.25854732935354 0.009999999999999787 11.26554732935354 0.016999999999999793 Q 11.27254732935354 0.0239999999999998 11.27254732935354 0.03499999999999981 L 11.27254732935354 0.5759999999999998 L 11.58254732935354 0.5759999999999998 Q 11.593547329353541 0.5759999999999998 11.60054732935354 0.5829999999999999 Q 11.60754732935354 0.5899999999999999 11.60754732935354 0.6009999999999999 L 11.60754732935354 0.6849999999999998 Q 11.60754732935354 0.6959999999999998 11.60054732935354 0.7029999999999998 Q 11.593547329353541 0.7099999999999999 11.58254732935354 0.7099999999999999 L 11.13654732935354 0.7099999999999999 M 11.96858785669729 0.7199999999999999 Q 11.87758785669729 0.7199999999999999 11.81158785669729 0.6899999999999998 Q 11.74558785669729 0.6599999999999998 11.70858785669729 0.5994999999999998 Q 11.67158785669729 0.5389999999999998 11.66858785669729 0.44699999999999984 Q 11.66758785669729 0.40399999999999986 11.66758785669729 0.3614999999999998 Q 11.66758785669729 0.31899999999999984 11.66858785669729 0.27499999999999986 Q 11.67158785669729 0.18499999999999983 11.70908785669729 0.12349999999999983 Q 11.74658785669729 0.06199999999999983 11.81308785669729 0.030999999999999805 Q 11.87958785669729 -1.1102230246251565e-16 11.96858785669729 -1.1102230246251565e-16 Q 12.05658785669729 -1.1102230246251565e-16 12.12308785669729 0.030999999999999805 Q 12.18958785669729 0.06199999999999983 12.22758785669729 0.12349999999999983 Q 12.265587856697291 0.18499999999999983 12.26758785669729 0.27499999999999986 Q 12.26958785669729 0.31899999999999984 12.26958785669729 0.3614999999999998 Q 12.26958785669729 0.40399999999999986 12.26758785669729 0.44699999999999984 Q 12.26458785669729 0.5389999999999998 12.22758785669729 0.5994999999999998 Q 12.19058785669729 0.6599999999999998 12.12458785669729 0.6899999999999998 Q 12.05858785669729 0.7199999999999999 11.96858785669729 0.7199999999999999 M 11.96858785669729 0.5909999999999999 Q 12.02658785669729 0.5909999999999999 12.06408785669729 0.5554999999999999 Q 12.10158785669729 0.5199999999999998 12.10358785669729 0.44199999999999984 Q 12.10558785669729 0.39799999999999985 12.10558785669729 0.3594999999999998 Q 12.10558785669729 0.32099999999999984 12.10358785669729 0.27799999999999986 Q 12.10258785669729 0.22599999999999987 12.08458785669729 0.19299999999999984 Q 12.06658785669729 0.1599999999999998 12.03708785669729 0.14449999999999985 Q 12.00758785669729 0.1289999999999999 11.96858785669729 0.1289999999999999 Q 11.92958785669729 0.1289999999999999 11.89958785669729 0.14449999999999985 Q 11.86958785669729 0.1599999999999998 11.85208785669729 0.19299999999999984 Q 11.83458785669729 0.22599999999999987 11.83258785669729 0.27799999999999986 Q 11.83158785669729 0.32099999999999984 11.83158785669729 0.3594999999999998 Q 11.83158785669729 0.39799999999999985 11.83258785669729 0.44199999999999984 Q 11.83558785669729 0.5199999999999998 11.87258785669729 0.5554999999999999 Q 11.90958785669729 0.5909999999999999 11.96858785669729 0.5909999999999999 M 12.67459078638479 0.7199999999999999 Q 12.58059078638479 0.7199999999999999 12.51409078638479 0.6884999999999999 Q 12.44759078638479 0.6569999999999998 12.41109078638479 0.5964999999999998 Q 12.37459078638479 0.5359999999999998 12.37159078638479 0.44999999999999984 Q 12.37059078638479 0.40699999999999986 12.37059078638479 0.3579999999999999 Q 12.37059078638479 0.30899999999999983 12.37159078638479 0.26499999999999985 Q 12.37459078638479 0.18099999999999983 12.41109078638479 0.12199999999999989 Q 12.44759078638479 0.06299999999999983 12.51509078638479 0.03149999999999986 Q 12.58259078638479 -1.1102230246251565e-16 12.67459078638479 -1.1102230246251565e-16 Q 12.74859078638479 -1.1102230246251565e-16 12.80459078638479 0.018999999999999795 Q 12.86059078638479 0.03799999999999981 12.89859078638479 0.0684999999999999 Q 12.93659078638479 0.09899999999999987 12.95659078638479 0.1349999999999998 Q 12.97659078638479 0.17099999999999982 12.97759078638479 0.20399999999999985 Q 12.97759078638479 0.21299999999999986 12.97159078638479 0.21949999999999986 Q 12.96559078638479 0.22599999999999987 12.95559078638479 0.22599999999999987 L 12.83159078638479 0.22599999999999987 Q 12.82159078638479 0.22599999999999987 12.81609078638479 0.22199999999999986 Q 12.81059078638479 0.21799999999999986 12.80659078638479 0.20999999999999985 Q 12.79959078638479 0.19199999999999984 12.78409078638479 0.17349999999999988 Q 12.76859078638479 0.1549999999999998 12.74259078638479 0.1419999999999998 Q 12.71659078638479 0.1289999999999999 12.67459078638479 0.1289999999999999 Q 12.61159078638479 0.1289999999999999 12.57509078638479 0.1619999999999998 Q 12.53859078638479 0.19499999999999984 12.53559078638479 0.26999999999999985 Q 12.53259078638479 0.35599999999999987 12.53559078638479 0.44499999999999984 Q 12.53859078638479 0.5229999999999999 12.57609078638479 0.5569999999999998 Q 12.61359078638479 0.5909999999999999 12.67659078638479 0.5909999999999999 Q 12.71759078638479 0.5909999999999999 12.75009078638479 0.5764999999999998 Q 12.78259078638479 0.5619999999999998 12.80159078638479 0.5309999999999999 Q 12.82059078638479 0.4999999999999999 12.82059078638479 0.45199999999999985 L 12.82059078638479 0.4269999999999998 L 12.71159078638479 0.4269999999999998 Q 12.70159078638479 0.4269999999999998 12.69459078638479 0.4194999999999999 Q 12.68759078638479 0.41199999999999987 12.68759078638479 0.40199999999999986 L 12.68759078638479 0.33799999999999986 Q 12.68759078638479 0.32699999999999985 12.69459078638479 0.31999999999999984 Q 12.70159078638479 0.31299999999999983 12.71159078638479 0.31299999999999983 L 12.95659078638479 0.31299999999999983 Q 12.96759078638479 0.31299999999999983 12.97459078638479 0.31999999999999984 Q 12.98159078638479 0.32699999999999985 12.98159078638479 0.33799999999999986 L 12.98159078638479 0.44699999999999984 Q 12.98159078638479 0.5329999999999999 12.94409078638479 0.5939999999999999 Q 12.90659078638479 0.6549999999999998 12.83709078638479 0.6874999999999999 Q 12.76759078638479 0.7199999999999999 12.67459078638479 0.7199999999999999" fill="#ffffff" fill-rule="nonzero"></path></g><g></g></g><defs><clipPath id="SvgjsClipPath19043"><path d=" M 6.0208984375 -0.24349999999999988 h 1.3296127590410398 v 1.2069999999999996 h -1.3296127590410398 Z"></path></clipPath><clipPath id="SvgjsClipPath1903829c24f10-4dd6-402e-b31e-181023aa1a14"><path d=" M 6.0208984375 -0.2435 L 7.3505111965410395 -0.2435 L 7.3505111965410395 0.9634999999999998 L 6.0208984375 0.9634999999999998 Z"></path></clipPath></defs></svg>